<svg width="25" height="24" viewBox="0 0 25 24" fill="none" xmlns="http://www.w3.org/2000/svg">
<path d="M24.1381 12.2832C24.1381 5.88174 18.7848 0.695557 12.1872 0.695557C5.58509 0.695557 0.236328 5.88174 0.236328 12.2832C0.236328 18.0654 4.60512 22.8598 10.3199 23.7281V15.6335H7.2851V12.2839H10.3199V9.72956C10.3199 6.82614 12.1013 5.2227 14.8321 5.2227C16.1399 5.2227 17.5091 5.44866 17.5091 5.44866V8.29994H15.9995C14.5176 8.29994 14.0545 9.19436 14.0545 10.1105V12.2832H17.3686L16.8361 15.6327H14.0545V23.7274C19.7648 22.8591 24.1381 18.0647 24.1381 12.2825V12.2832Z" fill="#193FF6"/>
</svg>
