<svg width="136" height="24" viewBox="0 0 136 24" fill="none" xmlns="http://www.w3.org/2000/svg">
<path d="M13.35 5.26005L14.62 7.85005C14.7278 8.06811 14.887 8.25669 15.0838 8.39954C15.2807 8.54239 15.5093 8.63523 15.75 8.67005L18.6 9.08005C18.8772 9.1203 19.1376 9.23734 19.3517 9.41793C19.5658 9.59852 19.725 9.83544 19.8114 10.1019C19.8978 10.3683 19.9078 10.6536 19.8404 10.9254C19.773 11.1973 19.6309 11.4448 19.43 11.6401L17.37 13.6401C17.1904 13.8127 17.0569 14.0277 16.9817 14.2653C16.9066 14.5028 16.8923 14.7555 16.94 15.0001L17.42 17.8401C17.4662 18.115 17.4349 18.3973 17.3295 18.6554C17.2242 18.9135 17.049 19.1371 16.8237 19.3012C16.5983 19.4653 16.3317 19.5633 16.0538 19.5843C15.7758 19.6053 15.4975 19.5484 15.25 19.4201L12.7 18.0601C12.484 17.947 12.2438 17.888 12 17.888C11.7562 17.888 11.5161 17.947 11.3 18.0601L8.75004 19.4001C8.5026 19.5284 8.22428 19.5853 7.94632 19.5643C7.66836 19.5433 7.40174 19.4453 7.17639 19.2812C6.95104 19.1171 6.77587 18.8935 6.67053 18.6354C6.5652 18.3773 6.53386 18.095 6.58004 17.8201L7.06004 15.0001C7.1026 14.7601 7.08565 14.5134 7.01068 14.2815C6.93571 14.0496 6.80501 13.8397 6.63004 13.6701L4.57004 11.6701C4.36019 11.4762 4.21006 11.2264 4.13732 10.9501C4.06458 10.6739 4.07226 10.3825 4.15945 10.1105C4.24663 9.83841 4.40971 9.5969 4.62948 9.41436C4.84926 9.23181 5.11659 9.11583 5.40004 9.08005L8.25004 8.67005C8.49076 8.63523 8.7194 8.54239 8.91626 8.39954C9.11312 8.25669 9.27228 8.06811 9.38004 7.85005L10.65 5.26005C10.7756 5.00954 10.9683 4.7989 11.2067 4.65169C11.4452 4.50448 11.7198 4.42651 12 4.42651C12.2802 4.42651 12.5549 4.50448 12.7933 4.65169C13.0318 4.7989 13.2245 5.00954 13.35 5.26005Z" fill="#FFC700" stroke="#FFC700" stroke-width="1.5" stroke-miterlimit="10"/>
<path d="M41.35 5.26005L42.62 7.85005C42.7278 8.06811 42.887 8.25669 43.0838 8.39954C43.2807 8.54239 43.5093 8.63523 43.75 8.67005L46.6 9.08005C46.8772 9.1203 47.1376 9.23734 47.3517 9.41793C47.5658 9.59852 47.725 9.83544 47.8114 10.1019C47.8978 10.3683 47.9078 10.6536 47.8404 10.9254C47.773 11.1973 47.6309 11.4448 47.43 11.6401L45.37 13.6401C45.1904 13.8127 45.0569 14.0277 44.9817 14.2653C44.9066 14.5028 44.8923 14.7555 44.94 15.0001L45.42 17.8401C45.4662 18.115 45.4349 18.3973 45.3295 18.6554C45.2242 18.9135 45.049 19.1371 44.8237 19.3012C44.5983 19.4653 44.3317 19.5633 44.0538 19.5843C43.7758 19.6053 43.4975 19.5484 43.25 19.4201L40.7 18.0601C40.484 17.947 40.2438 17.888 40 17.888C39.7562 17.888 39.5161 17.947 39.3 18.0601L36.75 19.4001C36.5026 19.5284 36.2243 19.5853 35.9463 19.5643C35.6684 19.5433 35.4017 19.4453 35.1764 19.2812C34.951 19.1171 34.7759 18.8935 34.6705 18.6354C34.5652 18.3773 34.5339 18.095 34.58 17.8201L35.06 15.0001C35.1026 14.7601 35.0856 14.5134 35.0107 14.2815C34.9357 14.0496 34.805 13.8397 34.63 13.6701L32.57 11.6701C32.3602 11.4762 32.2101 11.2264 32.1373 10.9501C32.0646 10.6739 32.0723 10.3825 32.1594 10.1105C32.2466 9.83841 32.4097 9.5969 32.6295 9.41436C32.8493 9.23181 33.1166 9.11583 33.4 9.08005L36.25 8.67005C36.4908 8.63523 36.7194 8.54239 36.9163 8.39954C37.1131 8.25669 37.2723 8.06811 37.38 7.85005L38.65 5.26005C38.7756 5.00954 38.9683 4.7989 39.2067 4.65169C39.4452 4.50448 39.7198 4.42651 40 4.42651C40.2802 4.42651 40.5549 4.50448 40.7933 4.65169C41.0318 4.7989 41.2245 5.00954 41.35 5.26005Z" fill="#FFC700" stroke="#FFC700" stroke-width="1.5" stroke-miterlimit="10"/>
<path d="M69.35 5.26005L70.62 7.85005C70.7278 8.06811 70.887 8.25669 71.0838 8.39954C71.2807 8.54239 71.5093 8.63523 71.75 8.67005L74.6 9.08005C74.8772 9.1203 75.1376 9.23734 75.3517 9.41793C75.5658 9.59852 75.725 9.83544 75.8114 10.1019C75.8978 10.3683 75.9078 10.6536 75.8404 10.9254C75.773 11.1973 75.6309 11.4448 75.43 11.6401L73.37 13.6401C73.1904 13.8127 73.0569 14.0277 72.9817 14.2653C72.9066 14.5028 72.8923 14.7555 72.94 15.0001L73.42 17.8401C73.4662 18.115 73.4349 18.3973 73.3295 18.6554C73.2242 18.9135 73.049 19.1371 72.8237 19.3012C72.5983 19.4653 72.3317 19.5633 72.0538 19.5843C71.7758 19.6053 71.4975 19.5484 71.25 19.4201L68.7 18.0601C68.484 17.947 68.2438 17.888 68 17.888C67.7562 17.888 67.5161 17.947 67.3 18.0601L64.75 19.4001C64.5026 19.5284 64.2243 19.5853 63.9463 19.5643C63.6684 19.5433 63.4017 19.4453 63.1764 19.2812C62.951 19.1171 62.7759 18.8935 62.6705 18.6354C62.5652 18.3773 62.5339 18.095 62.58 17.8201L63.06 15.0001C63.1026 14.7601 63.0856 14.5134 63.0107 14.2815C62.9357 14.0496 62.805 13.8397 62.63 13.6701L60.57 11.6701C60.3602 11.4762 60.2101 11.2264 60.1373 10.9501C60.0646 10.6739 60.0723 10.3825 60.1594 10.1105C60.2466 9.83841 60.4097 9.5969 60.6295 9.41436C60.8493 9.23181 61.1166 9.11583 61.4 9.08005L64.25 8.67005C64.4908 8.63523 64.7194 8.54239 64.9163 8.39954C65.1131 8.25669 65.2723 8.06811 65.38 7.85005L66.65 5.26005C66.7756 5.00954 66.9683 4.7989 67.2067 4.65169C67.4452 4.50448 67.7198 4.42651 68 4.42651C68.2802 4.42651 68.5549 4.50448 68.7933 4.65169C69.0318 4.7989 69.2245 5.00954 69.35 5.26005Z" fill="#FFC700" stroke="#FFC700" stroke-width="1.5" stroke-miterlimit="10"/>
<path d="M97.35 5.26005L98.62 7.85005C98.7278 8.06811 98.887 8.25669 99.0838 8.39954C99.2807 8.54239 99.5093 8.63523 99.75 8.67005L102.6 9.08005C102.877 9.1203 103.138 9.23734 103.352 9.41793C103.566 9.59852 103.725 9.83544 103.811 10.1019C103.898 10.3683 103.908 10.6536 103.84 10.9254C103.773 11.1973 103.631 11.4448 103.43 11.6401L101.37 13.6401C101.19 13.8127 101.057 14.0277 100.982 14.2653C100.907 14.5028 100.892 14.7555 100.94 15.0001L101.42 17.8401C101.466 18.115 101.435 18.3973 101.33 18.6554C101.224 18.9135 101.049 19.1371 100.824 19.3012C100.598 19.4653 100.332 19.5633 100.054 19.5843C99.7758 19.6053 99.4975 19.5484 99.25 19.4201L96.7 18.0601C96.484 17.947 96.2438 17.888 96 17.888C95.7562 17.888 95.5161 17.947 95.3 18.0601L92.75 19.4001C92.5026 19.5284 92.2243 19.5853 91.9463 19.5643C91.6684 19.5433 91.4017 19.4453 91.1764 19.2812C90.951 19.1171 90.7759 18.8935 90.6705 18.6354C90.5652 18.3773 90.5339 18.095 90.58 17.8201L91.06 15.0001C91.1026 14.7601 91.0856 14.5134 91.0107 14.2815C90.9357 14.0496 90.805 13.8397 90.63 13.6701L88.57 11.6701C88.3602 11.4762 88.2101 11.2264 88.1373 10.9501C88.0646 10.6739 88.0723 10.3825 88.1594 10.1105C88.2466 9.83841 88.4097 9.5969 88.6295 9.41436C88.8493 9.23181 89.1166 9.11583 89.4 9.08005L92.25 8.67005C92.4908 8.63523 92.7194 8.54239 92.9163 8.39954C93.1131 8.25669 93.2723 8.06811 93.38 7.85005L94.65 5.26005C94.7756 5.00954 94.9683 4.7989 95.2067 4.65169C95.4452 4.50448 95.7198 4.42651 96 4.42651C96.2802 4.42651 96.5549 4.50448 96.7933 4.65169C97.0318 4.7989 97.2245 5.00954 97.35 5.26005Z" fill="#FFC700" stroke="#FFC700" stroke-width="1.5" stroke-miterlimit="10"/>
<path d="M125.35 5.26005L126.62 7.85005C126.728 8.06811 126.887 8.25669 127.084 8.39954C127.281 8.54239 127.509 8.63523 127.75 8.67005L130.6 9.08005C130.877 9.1203 131.138 9.23734 131.352 9.41793C131.566 9.59852 131.725 9.83544 131.811 10.1019C131.898 10.3683 131.908 10.6536 131.84 10.9254C131.773 11.1973 131.631 11.4448 131.43 11.6401L129.37 13.6401C129.19 13.8127 129.057 14.0277 128.982 14.2653C128.907 14.5028 128.892 14.7555 128.94 15.0001L129.42 17.8401C129.466 18.115 129.435 18.3973 129.33 18.6554C129.224 18.9135 129.049 19.1371 128.824 19.3012C128.598 19.4653 128.332 19.5633 128.054 19.5843C127.776 19.6053 127.497 19.5484 127.25 19.4201L124.7 18.0601C124.484 17.947 124.244 17.888 124 17.888C123.756 17.888 123.516 17.947 123.3 18.0601L120.75 19.4001C120.503 19.5284 120.224 19.5853 119.946 19.5643C119.668 19.5433 119.402 19.4453 119.176 19.2812C118.951 19.1171 118.776 18.8935 118.671 18.6354C118.565 18.3773 118.534 18.095 118.58 17.8201L119.06 15.0001C119.103 14.7601 119.086 14.5134 119.011 14.2815C118.936 14.0496 118.805 13.8397 118.63 13.6701L116.57 11.6701C116.36 11.4762 116.21 11.2264 116.137 10.9501C116.065 10.6739 116.072 10.3825 116.159 10.1105C116.247 9.83841 116.41 9.5969 116.629 9.41436C116.849 9.23181 117.117 9.11583 117.4 9.08005L120.25 8.67005C120.491 8.63523 120.719 8.54239 120.916 8.39954C121.113 8.25669 121.272 8.06811 121.38 7.85005L122.65 5.26005C122.776 5.00954 122.968 4.7989 123.207 4.65169C123.445 4.50448 123.72 4.42651 124 4.42651C124.28 4.42651 124.555 4.50448 124.793 4.65169C125.032 4.7989 125.225 5.00954 125.35 5.26005Z" fill="#FFC700" stroke="#FFC700" stroke-width="1.5" stroke-miterlimit="10"/>
</svg>
