<svg width="24" height="24" viewBox="0 0 24 24" fill="none" xmlns="http://www.w3.org/2000/svg">
<path d="M17.5002 8.99897C16.605 8.99859 15.7236 9.22003 14.9348 9.6435C14.8628 9.45393 14.7349 9.29074 14.5679 9.17561C14.401 9.06049 14.203 8.99888 14.0002 8.99897H10.0002C9.86887 8.9989 9.7388 9.02471 9.61744 9.07494C9.49608 9.12517 9.38582 9.19882 9.29294 9.2917C9.20007 9.38457 9.12641 9.49484 9.07618 9.6162C9.02595 9.73756 9.00014 9.86763 9.00022 9.99897V21.999C9.00014 22.1303 9.02595 22.2604 9.07618 22.3817C9.12641 22.5031 9.20006 22.6134 9.29294 22.7062C9.38581 22.7991 9.49608 22.8728 9.61744 22.923C9.7388 22.9732 9.86887 22.999 10.0002 22.999H14.0002C14.1316 22.999 14.2616 22.9732 14.383 22.923C14.5043 22.8728 14.6146 22.7991 14.7075 22.7062C14.8004 22.6134 14.874 22.5031 14.9242 22.3817C14.9745 22.2604 15.0003 22.1303 15.0002 21.999V16.499C15.0002 16.2338 15.1056 15.9794 15.2931 15.7919C15.4806 15.6043 15.735 15.499 16.0002 15.499C16.2654 15.499 16.5198 15.6043 16.7073 15.7919C16.8949 15.9794 17.0002 16.2338 17.0002 16.499V21.999C17.0001 22.1303 17.026 22.2604 17.0762 22.3817C17.1264 22.5031 17.2001 22.6134 17.2929 22.7062C17.3858 22.7991 17.4961 22.8728 17.6174 22.923C17.7388 22.9732 17.8689 22.999 18.0002 22.999H22.0002C22.1316 22.999 22.2616 22.9732 22.383 22.923C22.5044 22.8728 22.6146 22.7991 22.7075 22.7062C22.8004 22.6134 22.874 22.5031 22.9242 22.3817C22.9745 22.2604 23.0003 22.1303 23.0002 21.999V14.499C22.9984 13.0408 22.4184 11.6429 21.3873 10.6119C20.3562 9.58083 18.9583 9.00078 17.5002 8.99897ZM21.0002 20.999H19.0002V16.499C19.0002 15.7033 18.6841 14.9403 18.1215 14.3777C17.5589 13.815 16.7959 13.499 16.0002 13.499C15.2046 13.499 14.4415 13.815 13.8789 14.3777C13.3163 14.9403 13.0002 15.7033 13.0002 16.499V20.999H11.0002V10.999H13.0002V11.7021C13.0003 11.9093 13.0648 12.1114 13.1847 12.2804C13.3045 12.4494 13.4739 12.577 13.6694 12.6456C13.865 12.7142 14.077 12.7204 14.2761 12.6633C14.4753 12.6063 14.6519 12.4888 14.7815 12.3271C15.2302 11.7571 15.8458 11.3415 16.5422 11.1383C17.2386 10.9351 17.9811 10.9545 18.6659 11.1937C19.3508 11.4329 19.9439 11.88 20.3624 12.4725C20.7809 13.0651 21.0039 13.7735 21.0002 14.499V20.999ZM7.00022 8.99897H3.00022C2.86887 8.9989 2.7388 9.02471 2.61744 9.07494C2.49608 9.12517 2.38581 9.19882 2.29294 9.2917C2.20007 9.38457 2.12641 9.49484 2.07618 9.6162C2.02595 9.73756 2.00014 9.86763 2.00022 9.99897V21.999C2.00014 22.1303 2.02595 22.2604 2.07618 22.3817C2.12641 22.5031 2.20006 22.6134 2.29294 22.7062C2.38581 22.7991 2.49608 22.8728 2.61744 22.923C2.7388 22.9732 2.86887 22.999 3.00022 22.999H7.00022C7.13156 22.999 7.26163 22.9732 7.38299 22.923C7.50435 22.8728 7.61462 22.7991 7.70749 22.7062C7.80037 22.6134 7.87402 22.5031 7.92425 22.3817C7.97448 22.2604 8.00029 22.1303 8.00022 21.999V9.99897C8.00029 9.86763 7.97448 9.73756 7.92425 9.6162C7.87402 9.49484 7.80036 9.38457 7.70749 9.2917C7.61462 9.19882 7.50435 9.12517 7.38299 9.07494C7.26163 9.02471 7.13156 8.9989 7.00022 8.99897ZM6.00022 20.999H4.00022V10.999H6.00022V20.999ZM5.01486 1.54197C4.57723 1.51577 4.13883 1.57887 3.72634 1.72741C3.31385 1.87596 2.93589 2.10686 2.61543 2.40606C2.29498 2.70527 2.03873 3.06653 1.86227 3.46787C1.68582 3.86921 1.59284 4.30226 1.58899 4.74066C1.58515 5.17907 1.67051 5.61367 1.8399 6.01805C2.00929 6.42243 2.25916 6.78813 2.57431 7.09291C2.88947 7.39769 3.26332 7.63518 3.67314 7.79095C4.08296 7.94671 4.52018 8.01748 4.95822 7.99897H4.98654C5.42533 8.02503 5.86484 7.96135 6.27819 7.81182C6.69155 7.66229 7.07007 7.43004 7.39064 7.12928C7.7112 6.82851 7.96707 6.46554 8.14262 6.06255C8.31817 5.65955 8.4097 5.225 8.41163 4.78543C8.41356 4.34586 8.32584 3.91052 8.15383 3.506C7.98183 3.10148 7.72915 2.73628 7.41123 2.43272C7.09332 2.12915 6.71685 1.89359 6.30482 1.74044C5.89279 1.58729 5.45386 1.51976 5.01485 1.54197H5.01486ZM4.98655 5.99897H4.95822C4.78528 6.01997 4.60986 6.00375 4.44371 5.9514C4.27755 5.89905 4.12452 5.81178 3.99486 5.69543C3.8652 5.57909 3.76191 5.43637 3.69193 5.27685C3.62194 5.11732 3.58688 4.94467 3.58909 4.77048C3.58909 4.02438 4.14865 3.54196 5.01486 3.54196C5.18956 3.51867 5.36722 3.53309 5.53588 3.58424C5.70454 3.6354 5.86027 3.7221 5.9926 3.83851C6.12493 3.95492 6.23077 4.09834 6.303 4.2591C6.37524 4.41986 6.41218 4.59424 6.41135 4.77048C6.41135 5.51657 5.85178 5.99897 4.98655 5.99897Z" fill="#939393"/>
</svg>
