<svg width="38" height="38" viewBox="0 0 38 38" fill="none" xmlns="http://www.w3.org/2000/svg">
<path d="M18.0133 0.990351C18.1972 -0.126282 19.8028 -0.126282 19.9867 0.990351L22.2776 14.8983C22.3472 15.3212 22.6788 15.6528 23.1017 15.7224L37.0096 18.0133C38.1263 18.1972 38.1263 19.8028 37.0096 19.9867L23.1017 22.2776C22.6788 22.3472 22.3472 22.6788 22.2776 23.1017L19.9867 37.0096C19.8028 38.1263 18.1972 38.1263 18.0133 37.0096L15.7224 23.1017C15.6528 22.6788 15.3212 22.3472 14.8983 22.2776L0.990351 19.9867C-0.126282 19.8028 -0.126282 18.1972 0.990351 18.0133L14.8983 15.7224C15.3212 15.6528 15.6528 15.3212 15.7224 14.8983L18.0133 0.990351Z" fill="#1A2716"/>
</svg>
